<svg xmlns="http://www.w3.org/2000/svg" viewBox="0 0 22 27.5" x="0px" y="0px"><path d="M17.4708145,14.6708145 L21.4,18.6 C22.2,19.4 22.2,20.6 21.4,21.4 C21,21.8 20.4,22 20,22 C19.6,22 19,21.8 18.6,21.4 L14.6708145,17.4708145 C13.1828064,18.4380933 11.4070234,19 9.5,19 C4.25329488,19 0,14.7467051 0,9.5 C0,4.25329488 4.25329488,0 9.5,0 C14.7467051,0 19,4.25329488 19,9.5 C19,11.4070234 18.4380933,13.1828064 17.4708145,14.6708145 L17.4708145,14.6708145 Z M9.5,15.6 C12.868937,15.6 15.6,12.868937 15.6,9.5 C15.6,6.13106303 12.868937,3.4 9.5,3.4 C6.13106303,3.4 3.4,6.13106303 3.4,9.5 C3.4,12.868937 6.13106303,15.6 9.5,15.6 Z"/><text x="0" y="37" fill="#000000" font-size="5px" font-weight="bold" font-family="'Helvetica Neue', Helvetica, Arial-Unicode, Arial, Sans-serif">Created by Jason Santos</text><text x="0" y="42" fill="#000000" font-size="5px" font-weight="bold" font-family="'Helvetica Neue', Helvetica, Arial-Unicode, Arial, Sans-serif">from the Noun Project</text></svg>