<svg xmlns="http://www.w3.org/2000/svg" xmlns:cc="http://creativecommons.org/ns#" xmlns:dc="http://purl.org/dc/elements/1.1/" xmlns:rdf="http://www.w3.org/1999/02/22-rdf-syntax-ns#" version="1.1" viewBox="0 0 26.458 33.0725" x="0px" y="0px"><g transform="translate(0 -270.54)"><path transform="matrix(.26458 0 0 .26458 0 270.54)" d="m14.859 3.5781c-3.0249 0-5.5391 2.7573-5.5391 6.3379v2.1895h56.984v-2.1895c0-3.5806-2.5141-6.3379-5.5391-6.3379h-45.906zm30.691 3.0352a0.911 0.911 0 0 1 0.003907 1.8203h-0.5625a0.90975 0.90975 0 1 1-0.00586-1.8164l0.56445-0.0039063zm-3.7383 0.0039063v0.0019531a0.90975 0.90975 0 1 1-0.027344 1.8184l-11.715 0.013672a0.911 0.911 0 1 1 0-1.8203l11.711-0.011719a0.90975 0.90975 0 0 1 0.03125-0.0019531zm-32.492 7.3066v72.156h56.986v-6.1953c-2.1611-1.359-4.2823-2.933-6.2871-4.6875-1.3917-1.2179-2.718-2.5235-3.9746-3.8848-0.002646 0-0.005163-0.004978-0.007813-0.007812-0.076535-0.082772-0.15255-0.16685-0.22852-0.25-0.42804-0.47017-0.84619-0.94583-1.2539-1.4297-0.16254-0.19242-0.3253-0.38581-0.48438-0.58008-0.003023-0.007559-0.004626-0.010308-0.007812-0.013672-0.20774-0.2547-0.41367-0.50944-0.61523-0.76758-0.28662-0.36597-0.56636-0.73514-0.83984-1.1074-0.012208-0.01852-0.026968-0.03371-0.039063-0.048828-0.15305-0.20924-0.29858-0.42192-0.44726-0.63281-0.003024-0.007559-0.006992-0.010308-0.009766-0.013671-0.262-0.37145-0.51585-0.74661-0.76367-1.123-0.11917-0.18123-0.24361-0.3608-0.35938-0.54297-0.00189-0.00378-0.003867-0.008582-0.005859-0.011719-0.004914-0.007559-0.008759-0.013925-0.013672-0.021484-0.21169-0.33419-0.41549-0.6703-0.61523-1.0078-0.00378 0-0.008336-0.008066-0.011719-0.015625-0.04252-0.071811-0.084963-0.14461-0.12695-0.2168-0.001773 0-0.002304-0.0031-0.003906-0.005859-0.17-0.29201-0.33546-0.58486-0.49609-0.87891-0.044674-0.082016-0.09081-0.16446-0.13477-0.24609-0.001413-0.004157-0.002659-0.005469-0.003906-0.007813-0.15472-0.28864-0.30393-0.57692-0.44922-0.86719-0.013001-0.026079-0.026212-0.051668-0.039062-0.078125-0.026684-0.053291-0.055575-0.10686-0.082032-0.16016-0.002645-0.00378-0.005257-0.008066-0.007812-0.015625-0.16542-0.33759-0.3244-0.67585-0.47656-1.0156-0.077971-0.1739-0.15027-0.3492-0.22461-0.52344-0.07612-0.17862-0.15238-0.35601-0.22461-0.53516-3.29e-4 -7.94e-4 3.25e-4 -0.003113 0-0.003906-0.076687-0.18981-0.15047-0.37825-0.22266-0.56836-0.061908-0.16343-0.12114-0.32696-0.17969-0.49023-0.00186-0.00378-0.004185-0.012261-0.00586-0.015625-0.07147-0.19982-0.14265-0.39967-0.20898-0.59961-5.06e-4 -1.52e-4 5.07e-4 -0.002395 0-0.003907-0.043427-0.1313-0.083841-0.26143-0.125-0.39258-0.005291-0.017008-0.010334-0.035663-0.015625-0.050781-0.064252-0.20606-0.13091-0.41278-0.18945-0.61914-0.091729-0.3233-0.17658-0.6456-0.25391-0.96875-0.057222-0.23917-0.10524-0.47755-0.1543-0.7168-0.021921-0.10696-0.044044-0.2153-0.064453-0.32226-7.49e-4 -0.00378-0.003158-0.006402-0.003906-0.009766-0.042558-0.22492-0.078132-0.45128-0.11328-0.67578-4.95e-4 -0.00378-0.001462-0.006629-0.001953-0.009766-0.021694-0.13912-0.043602-0.27888-0.0625-0.41797-0.02759-0.20432-0.053431-0.40723-0.074219-0.61133-0.018066-0.17121-0.02974-0.34284-0.042968-0.51367-3.03e-4 -0.00378 2.98e-4 -0.008355 0-0.011719-0.01372-0.17639-0.030748-0.3516-0.039063-0.52734-0.016252-0.34284-0.022468-0.68448-0.019531-1.0254 1.5e-5 -2.26e-4 -1.5e-5 -0.002318 0-0.003906 7.56e-4 -0.082015 0.00587-0.16408 0.007812-0.24609 7.2e-5 -0.003779-7.5e-5 -0.006628 0-0.009765 0.006539-0.27598 0.017078-0.55178 0.03711-0.82617 0.009449-0.12782 0.023062-0.25544 0.035156-0.38281 0.022753-0.23769 0.050725-0.47509 0.083984-0.71094 0.01663-0.11792 0.033459-0.23635 0.052735-0.35352 0.043238-0.26445 0.095424-0.52676 0.15234-0.78906 0.02041-0.093732 0.038248-0.18752 0.060547-0.28125 7.53e-4 -0.00378 0.003154-0.008544 0.003907-0.011719 0.08296-0.3493 0.17304-0.69632 0.28125-1.041v-0.001953c0.028157-0.090708 0.070423-0.17643 0.125-0.25391 0.080466-0.11603 0.10616-0.13325 0.11523-0.13476 0.02778-0.030237 0.056235-0.057737 0.058594-0.056641l3.6973-4.0664c0.00378-0.00378 8e-3 -0.008318 0.011719-0.011719 0.1276-0.13871 0.26708-0.26142 0.41406-0.36914 0.004157-0.003779 0.006046-0.008997 0.009765-0.011719 0.46634-0.33906 1.0163-0.52432 1.5742-0.55078 0.74358-0.03496 1.503 0.21057 2.0918 0.74609l8.8438 8.0469c0.589 0.53567 0.9043 1.2658 0.93945 2.0098v0.001953c0.008693 0.18554 0.001066 0.3722-0.025391 0.55664-0.052573 0.36926-0.17588 0.73179-0.37109 1.0625-0.097777 0.16558-0.21371 0.32368-0.34766 0.4707l-4.002 4.4004c1.0732 2.714 2.5988 5.0347 4.7129 7.1816 0.02914 0.02948 0.054504 0.059607 0.083984 0.089844l0.001953 0.001953c0.30919 0.3095 0.63119 0.61409 0.96484 0.91797 0.13047 0.11868 0.26507 0.21556 0.39648 0.33008v-52.412h-56.984zm43.781 28.398v0.003906c-0.27386 0.013228-0.54277 0.13538-0.75 0.36328l-3.6133 3.9727c-0.54749 1.8097-0.70487 3.7232-0.52734 5.6914 6.38e-4 0.003779-6.51e-4 0.011972 0 0.019531 0.006425 0.066898 0.01235 0.13427 0.019531 0.20117v0.001953c0.020938 0.20288 0.048203 0.40723 0.076172 0.61133v0.001953c0.023168 0.16516 0.048581 0.33055 0.076171 0.49609 0.00189 0.015118 0.00383 0.021991 0.00586 0.037109 0.019578 0.11792 0.038625 0.23717 0.060547 0.35547 6.65e-4 0.00378 0.001284 0.006364 0.001953 0.009766 0.52526 2.7886 1.6761 5.6541 3.3027 8.457 0.25236 0.43453 0.51501 0.8683 0.78906 1.2988 0.001901 0 0.002183 0.005091 0.003906 0.007812 0.12234 0.19204 0.2524 0.38102 0.37891 0.57227 0.00189 0 0.003996 0.005016 0.00586 0.007813 0.19934 0.30108 0.40408 0.60219 0.61328 0.90039 0.003023 0.00378 0.004845 0.010308 0.007812 0.013672 0.14608 0.20791 0.29076 0.41668 0.44141 0.62305 0.041159 0.056315 0.085491 0.11165 0.12695 0.16797 0.2504 0.33997 0.50539 0.67805 0.76758 1.0137 0.20927 0.26721 0.42425 0.53306 0.64062 0.79688 0.1166 0.14249 0.23495 0.28247 0.35352 0.42383 0.004536 0.003779 0.009137 0.008066 0.013672 0.015625 0.45581 0.54214 0.92344 1.0764 1.4062 1.6016 0.05333 0.058205 0.10652 0.11796 0.16016 0.17578 2.4108 2.597 5.1279 4.9624 7.9492 6.9375 0.071471 0.04989 0.1433 0.10088 0.21484 0.15039 0.68322 0.47259 1.3727 0.92371 2.0645 1.3477 2.5108 1.538 5.0537 2.7536 7.4863 3.5215 4.5619 1.4401 8.6347 1.3222 11.527-0.75195l3.7012-4.0664c0.41437-0.45555 0.38148-1.1168-0.074219-1.5312l-8.8418-8.0488c-0.4555-0.41424-1.1189-0.37934-1.5332 0.076172l-4.4219 4.8613c-0.22882 0.24907-0.57722 0.35098-0.9043 0.26367-2.9517-0.77469-5.5456-2.092-7.9629-3.9238l-0.001953-0.001953c-0.010961-0.007559-0.020668-0.015879-0.03125-0.023438-0.3204-0.24359-0.64058-0.49198-0.95508-0.75391-0.13352-0.11036-0.2636-0.22999-0.39648-0.34375-0.016441-0.016252-0.032576-0.027851-0.048828-0.042969-0.18308-0.15897-0.3694-0.30944-0.55078-0.47461-0.37244-0.3388-0.73116-0.68435-1.0781-1.0332-0.34658-0.34825-0.68276-0.70307-1.0039-1.0625-0.32111-0.35951-0.63011-0.72537-0.92578-1.0977l-0.001953-0.001954c-1.4798-1.8633-2.6396-3.8941-3.4785-6.1836-0.056919-0.15485-0.067408-0.31852-0.039062-0.47461 7.6e-4 -0.003779-8.16e-4 -0.012223 0-0.015625v-0.001953c0.03103-0.16048 0.10487-0.31164 0.21875-0.4375l4.4238-4.8613c0.10333-0.11339 0.18018-0.23919 0.22852-0.37109v-0.001953c0.024151-0.065764 0.042151-0.13156 0.052734-0.19922v-0.001954c4.84e-4 -0.003779-4.53e-4 -0.008619 0-0.011718 0.017386-0.12397 0.009635-0.24902-0.017578-0.37109-0.002094-0.011339-0.001756-0.016005-0.003906-0.027344-0.016706-0.06652-0.040077-0.13219-0.070313-0.19531v-0.001954c-0.019653-0.041196-0.046943-0.079833-0.072265-0.11914-0.013758-0.021543-0.023567-0.045556-0.039063-0.064453-0.0432-0.057827-0.094227-0.11266-0.15039-0.16406l-3.1875-2.9023-1.4258-1.2969-4.2305-3.8496c-0.22762-0.20712-0.50738-0.30418-0.78125-0.28906zm-43.781 45.566v2.1953c0 3.5805 2.5141 6.3379 5.5391 6.3379h45.906c3.0249 0 5.5391-2.7574 5.5391-6.3379v-2.1953h-56.984zm24.176 1.2891h8.6328c1.3313 0 2.4316 1.0984 2.4316 2.4297v0.14844c0 1.3313-1.1004 2.4297-2.4316 2.4297h-8.6328c-1.3313 0-2.4336-1.0984-2.4336-2.4297v-0.14844c0-1.3313 1.1023-2.4297 2.4336-2.4297zm0 1.8164c-0.35484 0-0.61524 0.25838-0.61524 0.61328v0.14844c0 0.35482 0.26039 0.60938 0.61524 0.60938h8.6328c0.35483 0 0.61524-0.25448 0.61524-0.60938v-0.14844c0-0.35505-0.26038-0.61328-0.61524-0.61328h-8.6328z" color="#000000" color-rendering="auto" dominant-baseline="auto" image-rendering="auto" shape-rendering="auto" solid-color="#000000" style="font-feature-settings:normal;font-variant-alternates:normal;font-variant-caps:normal;font-variant-ligatures:normal;font-variant-numeric:normal;font-variant-position:normal;isolation:auto;mix-blend-mode:normal;shape-padding:0;text-decoration-color:#000000;text-decoration-line:none;text-decoration-style:solid;text-indent:0;text-orientation:mixed;text-transform:none;white-space:normal;"/></g><text x="0" y="41.458" fill="#000000" font-size="5px" font-weight="bold" font-family="'Helvetica Neue', Helvetica, Arial-Unicode, Arial, Sans-serif">Created by mardjoe</text><text x="0" y="46.458" fill="#000000" font-size="5px" font-weight="bold" font-family="'Helvetica Neue', Helvetica, Arial-Unicode, Arial, Sans-serif">from the Noun Project</text></svg>